<svg width="24" height="24" fill="none" xmlns="http://www.w3.org/2000/svg"><circle cx="12" cy="12" r="12" fill="#F2F0F2"/><mask id="a" style="mask-type:alpha" maskUnits="userSpaceOnUse" x="0" y="0" width="24" height="24"><circle cx="12" cy="12" r="12" fill="#FCFCFC"/></mask><g mask="url(#a)"><path fill="#D90026" d="M3.9 21.3h16.5v3H3.9z"/><path fill="#D90026" d="M3.9 21.3h16.5v3H3.9zM.3 15.3H24v3H.3z"/><path fill="#D90026" d="M.3 15.3H24v3H.3zM.3 9H24v3H.3z"/><path fill="#D90026" d="M.3 9H24v3H.3zM.3 3H24v3H.3z"/><path fill="#D90026" d="M.3 3H24v3H.3z"/><path fill="#0052B5" d="M0 0h12.3v12H0z"/><path d="m9.9 10.05-.9.45.3-.9-.6-.6h.9l.3-.9.45.9h.75l-.6.6.3.9-.9-.45ZM5.7 10.05l-.9.45.3-.9-.6-.6h.9l.3-.9.45.9h.75l-.6.6.3.9-.9-.45ZM1.5 10.05l-.9.45.3-.9L.3 9h.9l.3-.9.45.9h.75l-.6.6.3.9-.9-.45ZM9.9 6.75 9 7.2l.3-.9-.6-.6h.9l.3-.9.45.9h.75l-.6.6.3.9-.9-.45ZM9.9 3.45 9 3.9l.3-.9-.6-.6h.9l.3-.9.45.9h.75l-.6.6.3.9-.9-.45ZM9.9.15 9 .6l.3-.9-.6-.6h.9l.3-.9.45.9h.75l-.6.6.3.9-.9-.45ZM5.7 3.45l-.9.45.3-.9-.6-.6h.9l.3-.9.45.9h.75l-.6.6.3.9-.9-.45ZM5.7 6.75l-.9.45.3-.9-.6-.6h.9l.3-.9.45.9h.75l-.6.6.3.9-.9-.45ZM1.5 6.75l-.9.45.3-.9-.6-.6h.9l.3-.9.45.9h.75l-.6.6.3.9-.9-.45Z" fill="#EFEFEF"/></g></svg>