<svg width="25" height="25" fill="currentColor" xmlns="http://www.w3.org/2000/svg"><path d="m23.406 19.604-1.041-4.021L19.083 3.51a1.042 1.042 0 0 0-1.27-.74L13.78 3.812a1.042 1.042 0 0 0-.76-.344H2.604A1.042 1.042 0 0 0 1.562 4.51v16.667a1.042 1.042 0 0 0 1.042 1.041h10.417a1.041 1.041 0 0 0 1.041-1.041v-8.334l2.292 8.563a1.041 1.041 0 0 0 1.042.77c.09.01.18.01.27 0l5.032-1.343a1.04 1.04 0 0 0 .635-.49c.11-.23.136-.492.073-.74Zm-16.666.573H3.615v-2.084H6.74v2.084Zm0-4.167H3.615V9.76H6.74v6.25Zm0-8.333H3.615V5.593H6.74v2.084Zm5.208 12.5H8.823v-2.084h3.125v2.084Zm0-4.167H8.823V9.76h3.125v6.25Zm0-8.333H8.823V5.593h3.125v2.084Zm2.344-1.813 3.02-.812.542 2.01-3.02.813-.542-2.01Zm2.698 10.063-1.615-6.042 3.02-.813 1.615 6.042-3.02.813Zm1.041 4.02-.541-2.01 3.02-.812.542 2.01-3.02.813Z"/></svg>