<svg width="46" height="46" fill="none" xmlns="http://www.w3.org/2000/svg"><g><path fill-rule="evenodd" clip-rule="evenodd" d="M33.37 12.63c-5.727-5.728-15.013-5.728-20.74 0-5.728 5.727-5.728 15.013 0 20.74 5.727 5.729 15.013 5.729 20.74 0 5.729-5.727 5.729-15.013 0-20.74ZM20.173 27.713a1.333 1.333 0 1 1-1.886-1.886L21.114 23l-2.828-2.828a1.333 1.333 0 1 1 1.886-1.886L23 21.114l2.828-2.828a1.333 1.333 0 1 1 1.886 1.886L24.886 23l2.828 2.828a1.333 1.333 0 1 1-1.886 1.886L23 24.886l-2.828 2.828Z" fill="#FB617D"/></g><defs><clipPath id="a"><path fill="#fff" transform="rotate(45 11.05 27.95)" d="M0 0h32v32H0z"/></clipPath></defs></svg>