<svg xmlns="http://www.w3.org/2000/svg" width="18" height="14" viewBox="0 0 18 14" fill="none">
<path d="M17.2667 6.66665C15.5833 2.75831 12.4167 0.333313 9 0.333313C5.58334 0.333313 2.41667 2.75831 0.733336 6.66665C0.687449 6.77178 0.663765 6.88526 0.663765 6.99998C0.663765 7.11469 0.687449 7.22817 0.733336 7.33331C2.41667 11.2416 5.58334 13.6666 9 13.6666C12.4167 13.6666 15.5833 11.2416 17.2667 7.33331C17.3126 7.22817 17.3362 7.11469 17.3362 6.99998C17.3362 6.88526 17.3126 6.77178 17.2667 6.66665ZM9 12C6.35834 12 3.85834 10.0916 2.41667 6.99998C3.85834 3.90831 6.35834 1.99998 9 1.99998C11.6417 1.99998 14.1417 3.90831 15.5833 6.99998C14.1417 10.0916 11.6417 12 9 12ZM9 3.66665C8.34073 3.66665 7.69627 3.86214 7.1481 4.22841C6.59994 4.59469 6.1727 5.11528 5.9204 5.72437C5.66811 6.33345 5.6021 7.00368 5.73072 7.65028C5.85933 8.29688 6.1768 8.89083 6.64298 9.357C7.10915 9.82318 7.7031 10.1406 8.3497 10.2693C8.9963 10.3979 9.66653 10.3319 10.2756 10.0796C10.8847 9.82729 11.4053 9.40004 11.7716 8.85188C12.1378 8.30372 12.3333 7.65925 12.3333 6.99998C12.3333 6.11592 11.9821 5.26808 11.357 4.64296C10.7319 4.01784 9.88406 3.66665 9 3.66665ZM9 8.66665C8.67037 8.66665 8.34813 8.5689 8.07405 8.38576C7.79997 8.20263 7.58635 7.94233 7.4602 7.63778C7.33406 7.33324 7.30105 6.99813 7.36536 6.67483C7.42967 6.35153 7.5884 6.05456 7.82149 5.82147C8.05458 5.58838 8.35155 5.42965 8.67485 5.36534C8.99815 5.30103 9.33326 5.33403 9.63781 5.46018C9.94235 5.58633 10.2026 5.79995 10.3858 6.07403C10.5689 6.34811 10.6667 6.67034 10.6667 6.99998C10.6667 7.44201 10.4911 7.86593 10.1785 8.17849C9.86595 8.49105 9.44203 8.66665 9 8.66665Z" fill="#AEAEAE"/>
</svg>