<svg width="20" height="20" viewBox="0 0 20 20" fill="none" xmlns="http://www.w3.org/2000/svg"><path d="M9.992 1.667c-4.6 0-8.325 3.733-8.325 8.333s3.725 8.333 8.325 8.333c4.608 0 8.341-3.733 8.341-8.333S14.6 1.667 9.992 1.667Zm5.775 5h-2.459a13.043 13.043 0 0 0-1.15-2.967 6.691 6.691 0 0 1 3.609 2.966ZM10 3.367a11.74 11.74 0 0 1 1.592 3.3H8.408c.359-1.192.9-2.3 1.592-3.3Zm-6.45 8.3A6.868 6.868 0 0 1 3.333 10c0-.575.084-1.133.217-1.667h2.817c-.067.55-.117 1.1-.117 1.667 0 .566.05 1.117.117 1.666H3.55Zm.683 1.666h2.459c.266 1.042.65 2.042 1.15 2.967a6.656 6.656 0 0 1-3.609-2.967Zm2.459-6.667H4.233A6.656 6.656 0 0 1 7.842 3.7a13.04 13.04 0 0 0-1.15 2.966ZM10 16.634a11.74 11.74 0 0 1-1.592-3.3h3.184a11.74 11.74 0 0 1-1.592 3.3Zm1.95-4.966h-3.9A12.26 12.26 0 0 1 7.917 10c0-.567.058-1.125.133-1.667h3.9c.075.542.133 1.1.133 1.667 0 .566-.058 1.117-.133 1.666Zm.208 4.633c.5-.925.884-1.925 1.15-2.967h2.459a6.691 6.691 0 0 1-3.609 2.967Zm1.475-4.634c.067-.55.117-1.1.117-1.666 0-.567-.05-1.117-.117-1.667h2.817A6.87 6.87 0 0 1 16.667 10a6.87 6.87 0 0 1-.217 1.666h-2.817Z" fill="#000"/></svg>