<svg width="18" height="18" viewBox="0 0 18 18" fill="none" xmlns="http://www.w3.org/2000/svg"><path d="M3 9a.75.75 0 0 0 .75.75h5.693l-1.725 1.717a.75.75 0 0 0 0 1.066.75.75 0 0 0 1.065 0l3-3a.75.75 0 0 0 .157-.248.75.75 0 0 0 0-.57.75.75 0 0 0-.157-.248l-3-3a.753.753 0 1 0-1.065 1.066L9.443 8.25H3.75A.75.75 0 0 0 3 9Zm9.75-7.5h-7.5A2.25 2.25 0 0 0 3 3.75V6a.75.75 0 0 0 1.5 0V3.75A.75.75 0 0 1 5.25 3h7.5a.75.75 0 0 1 .75.75v10.5a.75.75 0 0 1-.75.75h-7.5a.75.75 0 0 1-.75-.75V12A.75.75 0 1 0 3 12v2.25a2.25 2.25 0 0 0 2.25 2.25h7.5A2.25 2.25 0 0 0 15 14.25V3.75a2.25 2.25 0 0 0-2.25-2.25Z" fill="#FF4155"/></svg>