<svg width="20" height="20" viewBox="0 0 20 20" fill="none" xmlns="http://www.w3.org/2000/svg"><path d="M17.5 1.667h-5a.833.833 0 0 0 0 1.666h4.167V7.5a.833.833 0 1 0 1.666 0v-5a.833.833 0 0 0-.833-.833Zm0 10a.833.833 0 0 0-.833.833v4.166H12.5a.833.833 0 0 0 0 1.667h5a.833.833 0 0 0 .833-.833v-5a.833.833 0 0 0-.833-.834ZM10 5a2.5 2.5 0 0 0-2.5 2.5v.833A1.667 1.667 0 0 0 5.833 10v3.333A1.667 1.667 0 0 0 7.5 15h5a1.667 1.667 0 0 0 1.667-1.667V10A1.666 1.666 0 0 0 12.5 8.333V7.5A2.5 2.5 0 0 0 10 5Zm-.833 2.5a.833.833 0 1 1 1.666 0v.833H9.167V7.5Zm3.333 5.833h-5V10h5v3.333Zm-10-5a.833.833 0 0 0 .833-.833V3.333H7.5a.833.833 0 1 0 0-1.667h-5a.833.833 0 0 0-.833.834v5a.833.833 0 0 0 .833.833Zm5 8.333H3.333V12.5a.833.833 0 0 0-1.666 0v5a.833.833 0 0 0 .833.833h5a.833.833 0 1 0 0-1.666Z" fill="#000"/></svg>