<svg width="18" height="18" viewBox="0 0 18 18" fill="none" xmlns="http://www.w3.org/2000/svg"><path d="M16.5 5.43a.748.748 0 0 0-.218-.532l-3.18-3.18a.75.75 0 0 0-.532-.218.75.75 0 0 0-.533.218L9.915 3.84l-8.197 8.197a.75.75 0 0 0-.218.533v3.18a.75.75 0 0 0 .75.75h3.18a.75.75 0 0 0 .57-.218l8.152-8.197L16.282 6a.892.892 0 0 0 .166-.247.753.753 0 0 0 0-.18.526.526 0 0 0 0-.105l.052-.038ZM5.123 15H3v-2.123l7.447-7.447 2.123 2.123L5.123 15Zm8.505-8.505-2.123-2.122 1.065-1.058 2.115 2.115-1.058 1.065Z" fill="#000"/></svg>