<svg width="20" height="20" viewBox="0 0 20 20" fill="none" xmlns="http://www.w3.org/2000/svg"><path d="M12.342 10.233c.527-.566.824-1.31.833-2.083a3.15 3.15 0 0 0-6.3 0c.009.774.306 1.517.833 2.083A4.95 4.95 0 0 0 5 14.075a.838.838 0 1 0 1.667.183 3.333 3.333 0 0 1 6.616 0 .833.833 0 0 0 .884.742h.091a.833.833 0 0 0 .734-.917 4.95 4.95 0 0 0-2.65-3.85ZM10 9.633a1.483 1.483 0 1 1 0-2.967 1.483 1.483 0 0 1 0 2.967Zm5.833-7.966H4.167a2.5 2.5 0 0 0-2.5 2.5v11.666a2.5 2.5 0 0 0 2.5 2.5h11.666a2.5 2.5 0 0 0 2.5-2.5V4.167a2.5 2.5 0 0 0-2.5-2.5Zm.834 14.166a.833.833 0 0 1-.834.833H4.167a.833.833 0 0 1-.834-.833V4.167a.833.833 0 0 1 .834-.834h11.666a.833.833 0 0 1 .834.833v11.667Z" fill="#000"/></svg>