<svg width="32" height="32" fill="none" xmlns="http://www.w3.org/2000/svg"><path d="M18.667 25.333c5.028 0 7.542 0 9.104-1.562 1.562-1.562 1.562-4.076 1.562-9.104s0-7.543-1.562-9.104C26.209 4 23.695 4 18.667 4h-5.334C8.305 4 5.791 4 4.23 5.563c-1.562 1.561-1.562 4.076-1.562 9.104s0 7.542 1.562 9.104c.871.872 2.038 1.257 3.771 1.426" stroke="#292D34" stroke-width="3" stroke-linecap="round" stroke-linejoin="round"/><path d="M13.334 11.312C14 9.992 14.667 9.333 16 9.333c1.662 0 2.667 1.319 2.667 2.638 0 1.318-.667 1.377-2.667 2.696V16m0 3.333V20" stroke="#292D34" stroke-width="3" stroke-linecap="round" stroke-linejoin="round"/><path d="M18.667 25.333c-1.648 0-3.464.667-5.122 1.527-2.664 1.383-3.996 2.075-4.652 1.633-.656-.44-.532-1.806-.282-4.538l.056-.622" stroke="#292D34" stroke-width="3" stroke-linecap="round"/></svg>