<svg width="16" height="16" viewBox="0 0 16 16" fill="none" xmlns="http://www.w3.org/2000/svg"><path d="M12 9.333a2.667 2.667 0 0 0-2.053.987l-3.4-1.567c.16-.49.16-1.017 0-1.506l3.4-1.567a2.667 2.667 0 1 0-.567-1.207l-3.52 1.62a2.667 2.667 0 1 0 0 3.814l3.52 1.62a2.78 2.78 0 0 0-.047.473A2.667 2.667 0 1 0 12 9.333Zm0-6.666a1.333 1.333 0 1 1 0 2.666 1.333 1.333 0 0 1 0-2.666ZM4 9.333a1.333 1.333 0 1 1 0-2.666 1.333 1.333 0 0 1 0 2.666Zm8 4a1.334 1.334 0 1 1 0-2.667 1.334 1.334 0 0 1 0 2.667Z"/></svg>