<svg width="25" height="25" fill="none" xmlns="http://www.w3.org/2000/svg"><path d="M12.5 6.25a1.042 1.042 0 0 0-1.042 1.042v10.416a1.042 1.042 0 1 0 2.084 0V7.292A1.042 1.042 0 0 0 12.5 6.25ZM7.292 12.5a1.042 1.042 0 0 0-1.042 1.042v4.166a1.042 1.042 0 0 0 2.083 0v-4.166A1.042 1.042 0 0 0 7.292 12.5Zm10.416-2.083a1.042 1.042 0 0 0-1.041 1.041v6.25a1.041 1.041 0 1 0 2.083 0v-6.25a1.042 1.042 0 0 0-1.042-1.041Zm2.084-8.334H5.208a3.125 3.125 0 0 0-3.125 3.125v14.584a3.125 3.125 0 0 0 3.125 3.125h14.584a3.125 3.125 0 0 0 3.125-3.125V5.208a3.125 3.125 0 0 0-3.125-3.125Zm1.041 17.709a1.042 1.042 0 0 1-1.041 1.041H5.208a1.042 1.042 0 0 1-1.041-1.041V5.208a1.042 1.042 0 0 1 1.041-1.041h14.584a1.042 1.042 0 0 1 1.041 1.041v14.584Z" fill="currentColor"/></svg>