<svg width="18" height="18" viewBox="0 0 18 18" fill="none" xmlns="http://www.w3.org/2000/svg"><path d="M9.225 9.165a3.69 3.69 0 0 0 1.275-2.79 3.75 3.75 0 0 0-7.5 0 3.69 3.69 0 0 0 1.275 2.79 6 6 0 0 0-3.525 5.46.75.75 0 1 0 1.5 0 4.5 4.5 0 1 1 9 0 .75.75 0 1 0 1.5 0 6 6 0 0 0-3.525-5.46Zm-2.475-.54a2.25 2.25 0 1 1 0-4.5 2.25 2.25 0 0 1 0 4.5Zm7.305.24a3.75 3.75 0 0 0-2.805-6.24.75.75 0 1 0 0 1.5 2.25 2.25 0 0 1 2.25 2.25 2.25 2.25 0 0 1-1.125 1.943.75.75 0 0 0-.037 1.274l.292.195.097.053a5.25 5.25 0 0 1 3 4.785.75.75 0 1 0 1.5 0 6.75 6.75 0 0 0-3.172-5.76Z" fill="#000"/></svg>