<svg width="22" height="22" fill="none" xmlns="http://www.w3.org/2000/svg"><path d="m11 18.333-.788-.788a2.747 2.747 0 0 1 .018-3.905l.77-.752a8.553 8.553 0 0 0-.917-.055c-2.447 0-7.333 1.229-7.333 3.667v1.833H11ZM10.083 11a3.666 3.666 0 0 0 3.667-3.667 3.666 3.666 0 0 0-3.667-3.667 3.666 3.666 0 0 0-3.666 3.667A3.666 3.666 0 0 0 10.083 11ZM14.832 18.132a.924.924 0 0 1-1.302 0l-1.897-1.916a.907.907 0 0 1 0-1.274l.009-.01a.902.902 0 0 1 1.283 0l1.256 1.257 4.06-4.089a.913.913 0 0 1 1.293 0l.01.01a.908.908 0 0 1 0 1.274l-4.712 4.748Z" fill="#fff"/></svg>