<svg width="24" height="24" fill="none" xmlns="http://www.w3.org/2000/svg"><g clip-path="url(#a)"><path d="M.567 8.348A11.988 11.988 0 0 0 0 12c0 1.274.2 2.5.567 3.652L12 16.174l11.433-.522A11.99 11.99 0 0 0 24 12c0-1.274-.2-2.5-.567-3.652L12 7.826.567 8.348Z" fill="#F0F0F0"/><path d="M23.433 8.348 12 7.826.567 8.348c-.11.341-.203.69-.282 1.043h23.43a11.935 11.935 0 0 0-.282-1.043ZM.285 14.609c.079.354.173.702.282 1.043L12 16.174l11.433-.522c.11-.341.203-.69.282-1.043H.285Z" fill="#D80027"/><path d="M12 24c5.354 0 9.888-3.506 11.433-8.348H.567C2.112 20.494 6.647 24 12 24Z" fill="#6DA544"/><path d="M12 0C6.646 0 2.112 3.506.567 8.348h22.866C21.888 3.506 17.353 0 12 0Z" fill="#338AF3"/><path d="M5.484 4.957c0-1.124.79-2.063 1.844-2.293a2.348 2.348 0 1 0 0 4.586 2.348 2.348 0 0 1-1.844-2.293ZM8.716 6.024l.159.49h.514l-.416.301.16.49-.417-.303-.416.303.159-.49-.416-.302h.514l.16-.49ZM10.358 6.024l.159.49h.514l-.416.301.159.49-.416-.303-.416.303.159-.49-.417-.302h.515l.159-.49ZM12 6.024l.158.49h.515l-.416.301.158.49L12 7.002l-.416.303.16-.49-.417-.302h.514l.16-.49ZM13.64 6.024l.16.49h.514l-.416.301.159.49-.416-.303-.416.303.159-.49-.416-.302h.514l.159-.49ZM15.283 6.024l.158.49h.515l-.416.301.159.49-.416-.303-.417.303.16-.49-.417-.302h.514l.16-.49ZM10.358 4.316l.159.49h.514l-.416.302.159.489-.416-.302-.416.302.159-.49-.417-.301h.515l.159-.49ZM12 4.316l.158.49h.515l-.416.302.158.489L12 5.295l-.416.302.16-.49-.417-.301h.514l.16-.49ZM13.64 4.316l.16.49h.514l-.416.302.159.489-.416-.302-.416.302.159-.49-.416-.301h.514l.159-.49ZM15.283 4.316l.158.49h.515l-.416.302.159.489-.416-.302-.417.302.16-.49-.417-.301h.514l.16-.49ZM12 2.609l.158.49h.515l-.416.301.158.49L12 3.587l-.416.303.16-.49-.417-.302h.514l.16-.49ZM13.64 2.609l.16.49h.514l-.416.301.159.49-.416-.303-.416.303.159-.49-.416-.302h.514l.159-.49ZM15.283 2.609l.158.49h.515l-.416.301.159.49-.416-.303-.417.303.16-.49-.417-.302h.514l.16-.49Z" fill="#F0F0F0"/></g><defs><clipPath id="a"><path fill="#fff" d="M0 0h24v24H0z"/></clipPath></defs></svg>