<?xml version="1.0" standalone="no"?>
<!DOCTYPE svg PUBLIC "-//W3C//DTD SVG 20010904//EN"
 "http://www.w3.org/TR/2001/REC-SVG-20010904/DTD/svg10.dtd">
<svg version="1.0" xmlns="http://www.w3.org/2000/svg"
 width="512.000000pt" height="512.000000pt" viewBox="0 0 512.000000 512.000000"
 preserveAspectRatio="xMidYMid meet">
<metadata>
Created by potrace 1.14, written by Peter Selinger 2001-2017
</metadata>
<g transform="translate(0.000000,512.000000) scale(0.100000,-0.100000)"
fill="#000000" stroke="none">
<path d="M0 2560 l0 -2560 2560 0 2560 0 0 2560 0 2560 -2560 0 -2560 0 0
-2560z m2762 483 c-43 -60 -113 -157 -157 -218 -43 -60 -89 -125 -103 -142
l-24 -33 159 0 159 0 59 98 c32 53 108 166 169 250 l110 152 518 0 c285 0 518
-3 518 -6 0 -3 -118 -166 -262 -362 -330 -451 -331 -452 -338 -452 -3 0 -38
65 -79 145 l-73 145 23 32 c12 18 56 79 96 134 40 56 73 104 73 108 0 3 -64 6
-142 6 l-143 0 -22 -33 -23 -33 51 -154 c95 -291 150 -481 142 -493 -4 -7 -43
-60 -86 -120 l-79 -107 -184 0 c-101 0 -184 3 -184 6 0 3 46 69 103 147 56 77
105 146 110 153 7 12 -58 259 -73 277 -4 4 -26 -19 -49 -53 l-42 -60 -160 0
c-87 0 -159 -3 -159 -7 0 -5 11 -105 25 -223 14 -118 25 -221 25 -227 0 -10
-43 -13 -180 -13 -161 0 -180 2 -180 17 0 20 -30 423 -33 443 -1 7 -38 -34
-82 -93 l-79 -107 -189 0 c-116 0 -186 4 -182 9 3 6 113 158 244 338 l239 328
-136 3 c-75 1 -141 1 -147 -2 -6 -2 -161 -211 -345 -464 l-335 -461 -182 -1
c-101 0 -183 2 -183 5 0 3 149 209 330 459 182 249 330 456 330 460 0 3 -120
7 -266 8 l-266 3 89 122 88 123 792 0 793 0 -78 -107z m-740 -893 l89 0 -62
-90 -61 -90 -190 0 -190 0 38 53 c21 28 53 72 73 96 l35 44 89 -7 c50 -3 130
-6 179 -6z"/>
</g>
</svg>
