<svg width="25" height="25" fill="none" xmlns="http://www.w3.org/2000/svg"><path d="M13.542 9.375h-2.084V7.292a1.042 1.042 0 0 0-2.083 0v2.083H7.292a1.042 1.042 0 0 0 0 2.083h2.083v2.084a1.042 1.042 0 0 0 2.083 0v-2.084h2.084a1.042 1.042 0 0 0 0-2.083Zm5.208 6.25V5.208a3.125 3.125 0 0 0-3.125-3.125H5.208a3.125 3.125 0 0 0-3.125 3.125v10.417a3.125 3.125 0 0 0 3.125 3.125h10.417a3.125 3.125 0 0 0 3.125-3.125Zm-14.583 0V5.208a1.042 1.042 0 0 1 1.041-1.041h10.417a1.042 1.042 0 0 1 1.042 1.041v10.417a1.042 1.042 0 0 1-1.042 1.042H5.208a1.041 1.041 0 0 1-1.041-1.042ZM21.875 6.25a1.042 1.042 0 0 0-1.042 1.042v10.416a3.125 3.125 0 0 1-3.125 3.125H7.292a1.041 1.041 0 1 0 0 2.084h10.416a5.208 5.208 0 0 0 5.209-5.209V7.292a1.042 1.042 0 0 0-1.042-1.042Z" fill="currentColor"/></svg>