<svg width="20" height="24" fill="none" xmlns="http://www.w3.org/2000/svg"><g clip-path="url(#a)"><path d="M16.674 23.04c-1.287 1.262-2.707 1.066-4.061.47-1.44-.607-2.756-.645-4.276 0-1.893.826-2.898.586-4.038-.47-6.437-6.696-5.487-16.896 1.83-17.28 1.774.096 3.016.991 4.061 1.066 1.553-.32 3.04-1.234 4.703-1.114 1.998.163 3.492.96 4.49 2.393-4.11 2.496-3.136 7.968.638 9.504-.755 2.004-1.724 3.984-3.349 5.448l.002-.017ZM10.047 5.688C9.855 2.712 12.242.264 14.988.024c.378 3.432-3.088 6-4.94 5.664Z" fill="#333"/></g><defs><clipPath id="a"><path fill="#fff" d="M0 0h20v24H0z"/></clipPath></defs></svg>