<svg width="24" height="24" fill="none" xmlns="http://www.w3.org/2000/svg"><path d="M12 4.64a6.651 6.651 0 0 1 4.64 1.786l3.387-3.31A11.53 11.53 0 0 0 12 0 11.993 11.993 0 0 0 1.28 6.613l3.88 3.012A7.252 7.252 0 0 1 12 4.64Z" fill="#E43E2B"/><path d="M23.52 12.265a10.28 10.28 0 0 0-.254-2.452H12v4.452h6.614a5.86 5.86 0 0 1-2.454 3.893l3.787 2.932a11.73 11.73 0 0 0 3.576-8.825h-.003Z" fill="#3B7DED"/><path d="M5.174 14.37a7.382 7.382 0 0 1-.4-2.372 7.76 7.76 0 0 1 .386-2.373L1.28 6.613a11.97 11.97 0 0 0 0 10.77l3.894-3.012Z" fill="#F0B501"/><path d="M12 23.995a11.439 11.439 0 0 0 7.947-2.905l-3.787-2.933a7.103 7.103 0 0 1-4.16 1.2 7.225 7.225 0 0 1-6.826-4.986l-3.88 3.013A11.969 11.969 0 0 0 12 23.995Z" fill="#2BA24C"/></svg>