<svg xmlns="http://www.w3.org/2000/svg" width="18" height="18" viewBox="0 0 18 18" fill="none">
<path d="M8.11666 4.06668C8.40897 4.02187 8.70428 3.99959 9 4.00001C11.65 4.00001 14.1417 5.90834 15.5917 9.00001C15.3699 9.4705 15.1194 9.92692 14.8417 10.3667C14.7535 10.5032 14.7071 10.6625 14.7083 10.825C14.7102 11.0069 14.7715 11.1831 14.8829 11.3269C14.9943 11.4707 15.1496 11.5741 15.3253 11.6213C15.5009 11.6685 15.6872 11.6569 15.8557 11.5884C16.0241 11.5199 16.1655 11.3981 16.2583 11.2417C16.6466 10.6316 16.9839 9.99055 17.2667 9.32501C17.3114 9.22103 17.3344 9.10903 17.3344 8.99584C17.3344 8.88266 17.3114 8.77066 17.2667 8.66668C15.5833 4.75835 12.4167 2.33335 9 2.33335C8.60889 2.33137 8.2184 2.36484 7.83333 2.43335C7.7239 2.45195 7.6192 2.49193 7.52521 2.55099C7.43123 2.61006 7.34979 2.68706 7.28557 2.7776C7.22134 2.86813 7.17557 2.97043 7.15088 3.07866C7.12619 3.18688 7.12306 3.29891 7.14166 3.40835C7.16027 3.51778 7.20024 3.62248 7.25931 3.71646C7.31838 3.81045 7.39538 3.89188 7.48591 3.95611C7.57645 4.02033 7.67875 4.0661 7.78698 4.09079C7.8952 4.11548 8.00723 4.11862 8.11666 4.10001V4.06668ZM2.09166 0.908345C2.01396 0.830647 1.92172 0.769013 1.8202 0.726962C1.71869 0.684912 1.60988 0.663269 1.5 0.663269C1.39011 0.663269 1.28131 0.684912 1.17979 0.726962C1.07827 0.769013 0.986029 0.830647 0.90833 0.908345C0.75141 1.06527 0.663254 1.27809 0.663254 1.50001C0.663254 1.72193 0.75141 1.93476 0.90833 2.09168L3.49166 4.66668C2.31297 5.80129 1.37488 7.16167 0.73333 8.66668C0.687444 8.77182 0.663759 8.8853 0.663759 9.00001C0.663759 9.11473 0.687444 9.22821 0.73333 9.33334C2.41666 13.2417 5.58333 15.6667 9 15.6667C10.4976 15.6563 11.9598 15.2104 13.2083 14.3833L15.9083 17.0917C15.9858 17.1698 16.078 17.2318 16.1795 17.2741C16.2811 17.3164 16.39 17.3382 16.5 17.3382C16.61 17.3382 16.7189 17.3164 16.8205 17.2741C16.922 17.2318 17.0142 17.1698 17.0917 17.0917C17.1698 17.0142 17.2318 16.922 17.2741 16.8205C17.3164 16.7189 17.3382 16.61 17.3382 16.5C17.3382 16.39 17.3164 16.2811 17.2741 16.1795C17.2318 16.078 17.1698 15.9858 17.0917 15.9083L2.09166 0.908345ZM7.39166 8.56668L9.43333 10.6083C9.29249 10.6487 9.14651 10.6684 9 10.6667C8.55797 10.6667 8.13405 10.4911 7.82149 10.1785C7.50892 9.86596 7.33333 9.44204 7.33333 9.00001C7.33162 8.8535 7.35127 8.70752 7.39166 8.56668ZM9 14C6.35 14 3.85833 12.0917 2.41666 9.00001C2.95507 7.81147 3.71922 6.73883 4.66666 5.84168L6.14166 7.33334C5.7952 7.96568 5.66311 8.6933 5.76521 9.40706C5.86731 10.1208 6.19809 10.7822 6.70794 11.2921C7.21778 11.8019 7.87919 12.1327 8.59295 12.2348C9.30671 12.3369 10.0343 12.2048 10.6667 11.8583L11.9917 13.1667C11.0842 13.7007 10.0528 13.988 9 14Z" fill="#AEAEAE"/>
</svg>