<svg width="810" height="309" fill="none" xmlns="http://www.w3.org/2000/svg"><path d="M475.889.539 429.152 66.98H263.103l-.024.024L93.566 308.079H0L169.159 67.004H33.474L80.21.586h315.516l80.163-.047Z" fill="#FB617D"/><path d="m584.651 82.058 21.954 73.981-51.494 73.204-21.931-73.981 51.471-73.204Z" fill="url(#a)"/><path d="m431.742 186.221 13.121 121.857h-89.491l-8.692-121.857h85.062Z" fill="#52DDD6"/><path d="M595.226 67.003 584.649 82.06 511.953 186.22H346.681l-31.142 42.386-8.527 12.747-94.344-.024L335.256 67.003h93.92l-29.375 41.774-15.1 21.487 79.126-.023 37.479-63.238h93.92ZM212.667 241.331l94.014.471-28.41 41.491-5.842 8.505-11.118 16.281-95.545-.071 46.901-66.677Z" fill="#52DDD6"/><path d="m762.454 67.003-92.2 130.316-36.23 51.197-27.985-94.337 2.921-4.123 58.373-83.053h95.121Z" fill="url(#b)"/><path d="m809.471.584-47.019 66.419H501.305L548.017.584h261.454Z" fill="#FB617D"/><path d="m606.039 154.179 27.985 94.337-42.143 59.562H497.82l56.748-80.696 51.471-73.203Z" fill="#FBBE01"/><path d="M212.667 241.331h94.343l-.329.471-28.41 41.491-5.842 8.505-11.142 16.21h-95.521l46.901-66.677Z" fill="url(#c)"/><defs><linearGradient id="a" x1="537.549" y1="130.352" x2="587.932" y2="166.755" gradientUnits="userSpaceOnUse"><stop offset="0" stop-color="#A57704"/><stop offset=".159" stop-color="#AA7B04"/><stop offset=".355" stop-color="#B98803"/><stop offset=".572" stop-color="#D39D02"/><stop offset=".801" stop-color="#F5B901"/><stop offset=".833" stop-color="#FBBE01"/></linearGradient><linearGradient id="b" x1="656.229" y1="156.645" x2="604.529" y2="181.799" gradientUnits="userSpaceOnUse"><stop offset=".197" stop-color="#FB617D"/><stop offset="1" stop-color="#993D53"/></linearGradient><linearGradient id="c" x1="244.528" y1="304.569" x2="246.679" y2="213.937" gradientUnits="userSpaceOnUse"><stop offset=".343" stop-color="#FB617D"/><stop offset=".836" stop-color="#993D53"/></linearGradient></defs></svg>