<svg width="25" height="25" fill="none" xmlns="http://www.w3.org/2000/svg"><path d="M20.73 13.188a1.042 1.042 0 0 1 0-1.376l1.332-1.5a1.04 1.04 0 0 0 .125-1.218L20.104 5.49a1.042 1.042 0 0 0-1.114-.5l-1.959.395a1.042 1.042 0 0 1-1.198-.687l-.635-1.906a1.041 1.041 0 0 0-.99-.709h-4.166A1.042 1.042 0 0 0 9 2.792l-.583 1.906a1.042 1.042 0 0 1-1.198.687l-2.01-.395a1.042 1.042 0 0 0-1.042.5L2.083 9.094a1.042 1.042 0 0 0 .104 1.219l1.323 1.5a1.042 1.042 0 0 1 0 1.374l-1.323 1.5a1.042 1.042 0 0 0-.104 1.22l2.084 3.603a1.041 1.041 0 0 0 1.114.5l1.959-.395a1.042 1.042 0 0 1 1.197.687l.636 1.906a1.042 1.042 0 0 0 1.041.709h4.167a1.042 1.042 0 0 0 .99-.709l.635-1.906a1.041 1.041 0 0 1 1.198-.687l1.958.395a1.042 1.042 0 0 0 1.115-.5l2.083-3.604a1.042 1.042 0 0 0-.125-1.219l-1.406-1.5Zm-1.553 1.395.833.938-1.333 2.312-1.23-.25a3.125 3.125 0 0 0-3.593 2.084l-.396 1.166h-2.666l-.375-1.187a3.125 3.125 0 0 0-3.594-2.084l-1.23.25L4.24 15.51l.833-.937a3.125 3.125 0 0 0 0-4.167L4.24 9.47l1.333-2.292 1.229.25a3.125 3.125 0 0 0 3.594-2.083l.396-1.177h2.666l.396 1.187a3.125 3.125 0 0 0 3.594 2.083l1.229-.25L20.01 9.5l-.833.938a3.125 3.125 0 0 0 0 4.145Zm-7.052-6.25a4.167 4.167 0 1 0 0 8.334 4.167 4.167 0 0 0 0-8.334Zm0 6.25a2.083 2.083 0 1 1 0-4.167 2.083 2.083 0 0 1 0 4.167Z" fill="currentColor"/></svg>